<svg height='300px' width='300px'  fill="#FFFFFF" xmlns="http://www.w3.org/2000/svg" xmlns:xlink="http://www.w3.org/1999/xlink" version="1.1" x="0px" y="0px" viewBox="0 0 90 90" enable-background="new 0 0 90 90" xml:space="preserve"><path d="M22.879,25.687h58.234c0.252,0,0.514,0.053,0.748,0.141c-0.021,0.01-0.041,0.025-0.063,0.037L46.777,47.731l-23.49-21.639  L22.879,25.687z M8.521,22.034c-1.039-0.039-1.902,0.789-1.902,1.824c0,1.037,0.863,1.863,1.902,1.828h9.158l3.037,3.02  c0.016,0.016,0.031,0.031,0.047,0.047l24.545,22.613c0.611,0.561,1.525,0.648,2.23,0.207l34.625-21.625l-5.271,31.244  c-0.162,0.961-0.611,1.523-1.615,1.523H17.842c-0.496,0-1.049-0.219-1.336-0.465c-0.289-0.248-0.293-0.338-0.277-0.455l1.098-6.529  c0.188-1.111-0.676-2.123-1.809-2.129H8.506c-1.039-0.037-1.902,0.793-1.902,1.83c0,1.031,0.863,1.857,1.902,1.824h4.838l-0.742,4.4  c-0.26,1.545,0.502,2.979,1.521,3.84c1.018,0.867,2.324,1.336,3.719,1.336h57.436c2.797,0,4.844-2.197,5.246-4.572l5.826-34.588  c0.262-1.543-0.492-2.977-1.51-3.838c-1.02-0.869-2.326-1.336-3.727-1.336H8.521z"></path><path d="M8.49,34.278c-1.029-0.027-1.881,0.795-1.881,1.824c0,1.027,0.852,1.85,1.881,1.828h8.035l-1.594,9.453  c-0.209,1.014,0.471,2,1.5,2.172c1.023,0.172,1.986-0.541,2.121-1.563l1.955-11.59c0.188-1.111-0.674-2.131-1.814-2.125H8.49z"></path></svg>