<?xml version="1.0" encoding="utf-8"?>
<!-- Generator: Adobe Illustrator 23.0.3, SVG Export Plug-In . SVG Version: 6.00 Build 0)  -->
<svg version="1.1" id="Layer_1" xmlns="http://www.w3.org/2000/svg" xmlns:xlink="http://www.w3.org/1999/xlink" x="0px" y="0px"
	 viewBox="0 0 5734.9 1538.3" style="enable-background:new 0 0 5734.9 1538.3;" xml:space="preserve">
<style type="text/css">
	.st0{fill:#1A171B;}
	.st1{fill-rule:evenodd;clip-rule:evenodd;fill:#1A171B;}
	.st2{fill:#FF4713;}
</style>
<path class="st0" d="M5660.9,632.6l-200.1,195.3l-109.7,100.6l-14.6,14.1l-11.7,11.9v181.4c0,14.2-4.1,19.3-23.9,19.3h-98.9
	c-24.7,0-32.9-5.2-32.9-24.5v-496c0-19.3,9.9-23.8,32.9-23.8h101.4c21.4,0,21.4,6.7,21.4,23.8v162.1l168.1-166.6
	c20.6-19.3,18.9-19.3,34.6-19.3h112.9C5664.2,611,5683.1,611.7,5660.9,632.6L5660.9,632.6z M5355.6,934.2l126.5-55.6l204.3,254.4
	c15.7,19.3,3.3,22.3-18.1,22.3h-117c-16.5,0-20.6-2.2-33-17.1L5355.6,934.2L5355.6,934.2z M2121.8,632.6
	c8.3,6.7-23.1,95.2-34.6,92.2c-19.8-5.2-43.7-14.9-103.8-14.9c-75.8,0-131.8,20.8-131.8,104.9v152.4c0,66.2,37.1,94.4,103,94.4
	c74.2,0,112.1-17.8,131.8-23.1c13.2-2.9,39.6,91.5,30.5,98.9c-15.6,10.4-82.4,27.5-175.5,27.5c-172.2,0-248-75.8-248-178.5V802.1
	c0-108.5,56-199.2,276-199.2C2071.6,602.9,2110.3,622.9,2121.8,632.6L2121.8,632.6z M3576.6,714.4h-71.8c-14.9,0-19,2.2-19,14.1
	v402.3c0,19.3-8.2,24.5-32.1,24.5h-90.6c-26.4,0-33-2.9-33-24.5V728.5c0-11.9-4.1-14.1-19-14.1h-120.3c-19.8,0-20.6-6.7-20.6-15.7
	v-71.4c0-14.1,10.7-16.3,31.3-16.3h418.6c5.9,0,11.1,0.1,15.5,0.7L3576.6,714.4L3576.6,714.4z M5121.3,632.6
	c8.3,6.7-23.1,95.2-34.6,92.2c-19.8-5.2-43.7-14.9-103.8-14.9c-75.8,0-131.8,20.8-131.8,104.9v152.4c0,66.2,37.1,94.4,103,94.4
	c74.1,0,112.1-17.8,131.8-23.1c13.2-2.9,39.6,91.5,30.5,98.9c-15.7,10.4-82.4,27.5-175.5,27.5c-172.2,0-248-75.8-248-178.5V802.1
	c0-108.5,56-199.2,276-199.2C5071,602.9,5109.7,622.9,5121.3,632.6L5121.3,632.6z"/>
<path class="st1" d="M2444.7,965.7l-63.4-194.1l-63.4,194.1H2444.7L2444.7,965.7z M2659.8,1130.8c8.2,23.8-3.3,24.5-26.4,24.5
	h-105.5c-19.8,0-20.6-4.4-25.5-19.3l-27.2-80.3h-187.8l-26.4,80.3c-5,14.9-8.3,19.3-25.6,19.3H2144c-12.3,0-18.9-4.4-11.5-24.5
	l167.3-496c5.8-17.9,12.3-23.8,36.2-23.8h119.5c24.7,0,30.5,6,37.1,23.8L2659.8,1130.8L2659.8,1130.8z M3011.5,779.8
	c0-43.1-42.8-65.4-91.4-65.4h-58.5c-12.3,0-14.9,7.4-14.9,13.4v104.8c0,11.2,3.3,14.2,16.5,14.2h76.6
	C2978.5,846.7,3011.4,825.1,3011.5,779.8L3011.5,779.8z M3168,783.5c0,75-59.4,121.2-97.2,134.6c-11.6,4.5-10.7,3-6.6,11.9
	l100.5,200c8.3,15.6,9.9,26-11.5,25.2h-120.3c-23.1-0.7-23.9-8.2-30.5-21.6l-86.5-171.8c-3.3-5.9-5.8-5.9-13.2-5.9h-50.3
	c-7.4,0-8.2,3-8.2,11.2v164.3c0,19.3-9.1,23.8-31.3,23.8h-103.8c-22.2,0-20.6-8.9-20.6-26V630.3c0-14.1,4.1-19.3,24.7-19.3h217.5
	C3087.3,611,3168,683.1,3168,783.5L3168,783.5z M3965.6,779.8c0-43.1-42.9-65.4-91.5-65.4h-58.5c-12.4,0-14.8,7.4-14.8,13.4v104.8
	c0,11.2,3.3,14.2,16.5,14.2h76.6C3932.7,846.7,3965.6,825.1,3965.6,779.8L3965.6,779.8z M4122.2,783.5c0,75-59.3,121.2-97.3,134.6
	c-11.5,4.5-10.7,3-6.6,11.9l100.5,200c8.2,15.6,9.9,26-11.5,25.2h-120.3c-23.1-0.7-23.9-8.2-30.5-21.6l-86.5-171.8
	c-3.3-5.9-5.8-5.9-13.2-5.9h-50.2c-7.4,0-8.3,3-8.3,11.2v164.3c0,19.3-9,23.8-31.3,23.8h-103.8c-22.3,0-20.6-8.9-20.6-26V630.3
	c0-14.1,4.1-19.3,24.7-19.3h217.5C4041.4,611,4122.2,683.1,4122.2,783.5L4122.2,783.5z M4454.9,965.7l-63.5-194.1L4328,965.7H4454.9
	L4454.9,965.7z M4669.9,1130.8c8.3,23.8-3.3,24.5-26.4,24.5h-105.5c-19.8,0-20.6-4.4-25.5-19.3l-27.2-80.3h-187.9l-26.4,80.3
	c-5,14.9-8.2,19.3-25.5,19.3h-91.5c-12.4,0-19-4.4-11.5-24.5l167.2-496c5.8-17.9,12.4-23.8,36.3-23.8h119.5c24.7,0,30.5,6,37,23.8
	L4669.9,1130.8L4669.9,1130.8z"/>
<path class="st2" d="M836.6,165c0,59.1-47.9,107-107,107c-59.1,0-107-47.9-107-107c0-59,47.9-107,107-107
	C788.7,58,836.6,105.9,836.6,165z"/>
<path class="st0" d="M1251.6,1431.3c-20.9,26.5-51.2,42.3-85.2,42.3c-29,0-55.4-11.3-74.7-30l-202.8-203.5
	c-88.7-88.7-232.5-88.7-321.1,0l-195,202c-19.5,20.4-47,33-77.4,33c-33.6,0-63.6-15.3-83.3-39.5
	c-93.1-118.8-146.7-243.9-146.7-412.3c0-13.7,0.4-27.4,1.3-41h206.6c-1,13.5-1.5,27.2-1.5,41.1c0,86.9,20,168.4,55,239.5
	l405.9-679.6l401.2,678.8c34.8-70.9,54.6-152.1,54.6-238.6c0-13.9-0.5-27.6-1.5-41.1h206.6c0.8,13.6,1.2,27.3,1.2,41
	C1394.8,1189,1342.7,1313.5,1251.6,1431.3L1251.6,1431.3z M74.1,915.5c51.5-315.9,325.6-557,656.1-557c330.4,0,604.6,241.1,656,557
	H1178c-45.2-229.1-231.7-395.9-447.9-395.9S327.4,686.4,282.2,915.5L74.1,915.5L74.1,915.5z"/>
<path class="st2" d="M1802.1,1409.5c-10.5,8.1-26.8,12.1-49,12.1h-13.2c-1.8,0-3,0.3-3.6,0.9s-0.8,2-0.8,4.1v37.2
	c0,2.8-0.6,4.6-1.9,5.4s-3.3,1.3-6,1.3h-26.2c-2.8,0-4.3-0.6-4.7-1.9c-0.3-1.3-0.5-3.1-0.5-5.4v-140.3c0-1.9,0.4-3.3,1.2-4.2
	s2.5-1.3,5.1-1.3h55.2c20.9,0,36.2,4.4,45.8,13.1s14.4,22.1,14.4,40.3C1817.9,1388.5,1812.6,1401.4,1802.1,1409.5L1802.1,1409.5z
	 M1776,1358.3c-1.3-2.6-2.9-4.8-5-6.5s-4.6-2.9-7.3-3.8c-2.8-0.8-5.7-1.3-8.8-1.3h-14.9c-1.5,0-2.6,0.4-3.1,1.3
	c-0.5,0.8-0.7,1.7-0.7,2.5v36.4c0,1.5,0.3,2.6,0.8,3.1s1.7,0.8,3.4,0.8h17.9c2.5,0,5-0.4,7.3-1.3s4.5-2.2,6.3-4
	c1.8-1.8,3.3-4.2,4.4-7.1c1.1-2.9,1.7-6.5,1.7-10.7C1777.9,1364.1,1777.3,1360.9,1776,1358.3L1776,1358.3z M2017.4,1443.3
	c-2,5.6-4.7,10.3-8.1,14s-7.1,6.7-11.3,8.8s-8.5,3.7-13,4.7s-8.8,1.7-13.1,2c-3.8,0.3-7.6,0.4-11.4,0.4c-5.4,0-11.5-0.5-18.2-1.5
	c-6.7-1-13.1-3.1-19-6.3c-6-3.2-11-7.9-15.1-14c-4-6.1-6.1-14.4-6.1-24.9V1323c0-1.9,0.4-3.3,1.2-4.2c0.8-0.8,2.3-1.3,4.5-1.3h24.4
	c2.9,0,5,0.4,6.3,1.4c1.3,0.9,1.9,2.8,1.9,5.5v89.7c0,8.6,1.9,15.2,5.8,19.8c3.8,4.5,8.5,6.8,14.1,6.8c4.2,0,7.6-0.7,10.3-2
	c2.6-1.3,4.7-3.2,6.2-5.6c1.5-2.4,2.5-5.3,3-8.6c0.6-3.3,0.8-6.9,0.8-10.8v-90.7c0-1.9,0.4-3.3,1.2-4.2c0.8-0.8,2.3-1.3,4.5-1.3
	h25.7c2.8,0,4.9,0.4,6.3,1.4c1.4,0.9,2.1,2.8,2.1,5.5v98.7C2020.4,1431,2019.4,1437.8,2017.4,1443.3L2017.4,1443.3z M2220.6,1345.3
	c-0.5,0.8-2,1.3-4.5,1.3h-32c-1.9,0-3.2,0.3-3.9,0.7c-0.6,0.5-0.9,1.6-0.9,3.2v113.1c0,2.8-0.6,4.6-1.8,5.5
	c-1.2,0.9-3.3,1.3-6.3,1.3h-22.9c-3.3,0-5.5-0.4-6.6-1.2s-1.7-2.7-1.7-5.8v-113.1c0-1.7-0.3-2.8-0.9-3.2c-0.6-0.5-1.9-0.7-3.9-0.7
	h-30.5c-2.5,0-4-0.4-4.5-1.3c-0.5-0.8-0.7-1.9-0.7-3.1v-20.1c0-1.9,0.7-3.2,2-3.8c1.3-0.6,3.3-0.8,6-0.8h106c2.5,0,4.5,0.3,5.9,0.7
	c1.4,0.5,2.1,1.7,2.1,3.7v20.3C2221.3,1343.4,2221.1,1344.5,2220.6,1345.3L2220.6,1345.3z M2411.2,1345.3c-0.5,0.8-2,1.3-4.5,1.3
	h-32c-1.9,0-3.2,0.3-3.9,0.7c-0.6,0.5-0.9,1.6-0.9,3.2v113.1c0,2.8-0.6,4.6-1.8,5.5c-1.2,0.9-3.3,1.3-6.3,1.3h-22.9
	c-3.3,0-5.5-0.4-6.6-1.1s-1.7-2.7-1.7-5.8v-113.1c0-1.7-0.3-2.8-0.9-3.2c-0.6-0.5-1.9-0.7-3.9-0.7h-30.5c-2.5,0-4-0.4-4.5-1.3
	c-0.5-0.8-0.7-1.9-0.7-3.1v-20.1c0-1.9,0.7-3.2,2-3.8c1.3-0.6,3.3-0.8,6-0.8h106c2.5,0,4.5,0.3,5.9,0.7c1.4,0.5,2.1,1.7,2.1,3.7
	v20.3C2412,1343.4,2411.7,1344.5,2411.2,1345.3L2411.2,1345.3z M2530.9,1469.4c-0.8,0.8-2.4,1.2-4.8,1.2h-25.4c-2.9,0-5-0.4-6.1-1.3
	c-1.2-0.8-1.8-2.6-1.8-5.2v-140.7c0-2.4,0.4-3.9,1.4-4.7c0.9-0.8,2.9-1.2,6.1-1.2h26.4c2.4,0,3.9,0.5,4.5,1.6s0.9,2.8,0.9,5.1v141.1
	C2532.1,1467.2,2531.7,1468.6,2530.9,1469.4L2530.9,1469.4z M2749.1,1469.6c-0.6,1.5-2,2.1-4.4,2l-21.8-0.6
	c-2.4-0.1-4.2-0.6-5.4-1.4c-1.3-0.8-2.4-2.1-3.5-4.1l-48.3-77.3c-1.4-2.4-2.5-3.7-3.4-4s-1.3,1.1-1.3,4.2v74.8c0,3.1-0.4,5.1-1.1,6
	c-0.8,0.9-2.8,1.3-6,1.3h-23.8c-0.8,0-1.7-0.2-2.5-0.5c-0.8-0.3-1.5-0.9-2.1-1.8s-0.8-2.1-0.8-3.8v-140.3c0-0.3,0-0.8,0.1-1.5
	c0.1-0.8,0.3-1.5,0.5-2.2c0.3-0.8,0.8-1.5,1.5-2.1c0.7-0.6,1.6-0.9,2.7-0.9h21.9l4.2,0.2c1,0.1,1.8,0.4,2.4,0.7s1.1,0.8,1.5,1.3
	c0.3,0.6,0.9,1.3,1.6,2.1l48.7,79.6c1.1,2,2.1,2.8,3,2.5s1.4-2.2,1.4-5.7v-74.2c0-1.5,0.4-3.1,1.1-4.7s2-2.3,3.9-2h25.6
	c2.1,0,3.5,0.6,4.2,1.7s1,2.9,1,5.2v138.8C2749.9,1466,2749.6,1468.1,2749.1,1469.6L2749.1,1469.6z M2959.3,1441.6
	c-1.2,5.8-3.7,11-7.5,15.8s-9.4,8.6-16.8,11.5c-7.4,2.9-17.3,4.4-29.7,4.4c-12,0-22.1-1.4-30.2-4.2c-8.1-2.8-14.7-6.6-19.6-11.4
	c-4.9-4.8-8.4-10.4-10.4-16.7c-2.1-6.3-3.1-13.1-3.1-20.4v-46.8c0-7.9,0.9-15.4,2.8-22.5c1.9-7,5.4-13.2,10.6-18.6
	c5.1-5.4,12.3-9.6,21.3-12.8c9.1-3.1,20.8-4.7,35.1-4.7c6.8,0,12.7,0.4,17.7,1.1c4.9,0.8,9.1,1.7,12.4,2.7c3.4,1,6,2.1,7.8,3.1
	s3.2,1.9,3.9,2.6c0.6,0.6,0.5,2.3-0.1,5.2c-0.6,2.9-1.5,6-2.6,9.2s-2.3,6-3.6,8.5c-1.3,2.4-2.4,3.4-3.2,3c-1.4-0.6-2.8-1.2-4.3-1.8
	c-1.6-0.6-3.5-1.2-5.8-1.8s-4.9-1-7.9-1.4c-3.1-0.3-6.7-0.5-10.9-0.5c-4.6,0-8.9,0.4-12.9,1.2c-4,0.8-7.4,2.3-10.3,4.5
	c-2.9,2.2-5.3,5.4-7,9.6c-1.8,4.2-2.6,9.6-2.6,16.3v39.3c0,10,1.6,17.4,4.8,22.2s9,7.1,17.4,7.1c7.3,0,12.3-1.5,15.1-4.5
	c2.8-3,4.2-7.2,4.2-12.6v-15.7c0-1.1-0.2-2.1-0.5-3c-0.4-0.9-1.5-1.4-3.4-1.6h-10.4c-1.5,0-2.6-0.2-3.2-0.7
	c-0.6-0.5-0.9-1.7-0.9-3.7v-16.5c0-1.1,0.1-2.1,0.3-3c0.2-0.9,1.1-1.3,2.6-1.3h43.7c4.2,0,6.8,0.5,7.8,1.6c1,1,1.6,3.4,1.6,7v33
	C2961.1,1430,2960.5,1435.8,2959.3,1441.6L2959.3,1441.6z M3287.2,1328.6l-6.8,12l-9.2,16.4l-10,17.8l-9.3,16.3l-9.2,16.5v57.1
	c0,2.4-0.6,3.9-1.9,4.7c-1.3,0.8-3.3,1.2-6.2,1.2h-25.4c-2.4,0-3.9-0.3-4.7-1s-1.1-1.9-1.1-3.8v-58.3l-49.8-84
	c-1.7-2.8-1.9-4.5-0.7-5c1.2-0.6,3-0.8,5.5-0.8h29.5c2.6,0,4.4,0.3,5.1,1s1.9,2.2,3.2,4.6l30.8,53.7l10.6-19l9-15.9l10.7-18.8
	l1.7-2.7c0.4-0.7,0.9-1.3,1.5-1.7s1.3-0.7,2.1-0.9c0.8-0.2,2-0.3,3.6-0.3h19c2.8,0,4.7,0.3,5.9,0.8c1.1,0.6,0.8,2.4-1,5.6
	C3289.7,1324.1,3288.8,1325.7,3287.2,1328.6L3287.2,1328.6z M3488.6,1444.2c-2.2,5.7-5,10.4-8.6,14.2c-3.6,3.8-7.5,6.6-11.9,8.6
	c-4.4,1.9-8.9,3.4-13.4,4.4c-4.5,1-8.9,1.5-13.1,1.7l-10.7,0.2c-3.3,0-7.1-0.1-11.4-0.4c-4.3-0.3-8.6-0.9-13.1-1.8
	s-8.9-2.3-13.2-4.3c-4.3-1.9-8.2-4.6-11.5-7.9c-3.4-3.3-6-7.5-8.1-12.5c-2-5-3-11.2-3-18.4v-60.2c0-18.7,4.8-32.1,14.4-40.2
	c9.6-8.2,24.2-12.2,43.7-12.2c7.9,0,15.7,0.8,23.2,2.4c7.5,1.6,14.3,4.4,20.2,8.5c5.9,4,10.7,9.5,14.2,16.4s5.3,15.6,5.3,26v54.6
	C3491.8,1431.4,3490.7,1438.4,3488.6,1444.2L3488.6,1444.2z M3452.1,1371.4c0-7.5-1.7-13.4-5.2-17.8c-3.5-4.3-8.7-6.5-15.7-6.5
	c-4.5,0-8.1,0.7-11,2.1c-2.9,1.4-5.1,3.2-6.7,5.4s-2.7,4.8-3.3,7.7c-0.6,3-1,6-0.9,9v45.2c0,4.2,0.6,7.8,1.9,10.9s2.9,5.6,4.9,7.5
	c2,1.9,4.3,3.4,6.9,4.3c2.6,0.9,5.2,1.3,7.8,1.3c7.1,0,12.4-2,16-6.1c3.6-4,5.3-10.7,5.3-20.1L3452.1,1371.4L3452.1,1371.4z
	 M3696.8,1443.3c-2,5.6-4.7,10.3-8.1,14c-3.3,3.8-7.1,6.7-11.3,8.8c-4.2,2.1-8.5,3.7-13,4.7c-4.5,1-8.8,1.7-13.1,2
	c-4.3,0.3-8.1,0.4-11.4,0.4c-5.4,0-11.5-0.5-18.2-1.5c-6.7-1-13.1-3.1-19-6.3c-6-3.2-11-7.9-15.1-14c-4-6.1-6.1-14.4-6.1-24.9V1323
	c0-1.9,0.4-3.3,1.1-4.2c0.8-0.8,2.3-1.3,4.5-1.3h24.5c2.9,0,5,0.5,6.3,1.4c1.3,0.9,1.9,2.8,1.9,5.5v89.7c0,8.6,1.9,15.2,5.8,19.8
	c3.8,4.5,8.5,6.8,14.1,6.8c4.2,0,7.6-0.7,10.2-2c2.6-1.3,4.7-3.2,6.2-5.6s2.5-5.3,3-8.6c0.6-3.3,0.8-6.9,0.8-10.8v-90.7
	c0-1.9,0.4-3.3,1.1-4.2c0.8-0.8,2.3-1.3,4.5-1.3h25.7c2.8,0,4.9,0.4,6.3,1.4c1.4,0.9,2.1,2.8,2.1,5.5v98.7
	C3699.8,1431,3698.8,1437.8,3696.8,1443.3L3696.8,1443.3z M3941.9,1469.4c-0.8,0.8-2.4,1.2-4.8,1.2h-25.4c-2.9,0-4.9-0.4-6.1-1.3
	s-1.8-2.6-1.8-5.2v-140.7c0-2.4,0.4-3.9,1.4-4.7c0.9-0.8,2.9-1.2,6.1-1.2h26.4c2.4,0,3.9,0.5,4.5,1.6s0.9,2.8,0.9,5.1v141.1
	C3943.1,1467.2,3942.7,1468.6,3941.9,1469.4L3941.9,1469.4z"/>
<g>
	<path id="B" class="st2" d="M4160.1,1469.6c-0.6,1.5-2,2.1-4.4,2l-21.8-0.6c-2.4-0.1-4.2-0.6-5.4-1.4c-1.3-0.8-2.4-2.1-3.5-4.1
		l-48.3-77.3c-1.4-2.4-2.5-3.7-3.4-4c-0.8-0.3-1.3,1.1-1.3,4.2v74.8c0,3.1-0.4,5.1-1.1,6c-0.8,0.9-2.8,1.3-6,1.3h-23.8
		c-0.8,0-1.7-0.2-2.5-0.5c-0.8-0.3-1.5-0.9-2.1-1.8c-0.6-0.8-0.8-2.1-0.8-3.8v-140.3c0-0.3,0-0.8,0.1-1.5c0.1-0.7,0.3-1.4,0.5-2.2
		c0.3-0.8,0.8-1.5,1.5-2.1c0.7-0.6,1.6-0.9,2.7-0.9h22c1.8,0,3.2,0.1,4.2,0.2c1,0.1,1.8,0.4,2.4,0.7c0.6,0.3,1.1,0.8,1.5,1.3
		c0.3,0.6,0.9,1.3,1.6,2.1l48.7,79.6c1.1,2,2.1,2.8,3,2.5s1.4-2.2,1.4-5.7v-74.2c0-1.5,0.4-3.1,1.1-4.7s2-2.3,3.9-2h25.6
		c2.1,0,3.5,0.6,4.2,1.7s1,2.9,1,5.2v138.8C4160.9,1466,4160.6,1468.1,4160.1,1469.6L4160.1,1469.6z"/>
</g>
<path class="st2" d="M4474.7,1326.2c-0.1,1.5-0.5,3.2-0.9,5.1l-1.8,6.3l-2.2,6.1c-0.8,1.8-1.5,3.3-2.3,4.4c-0.8,1.1-1.4,1.6-1.8,1.5
	l-4.1-1.4c-1.5-0.5-3.2-0.9-5.2-1.3s-4.4-0.8-7.2-1.1c-2.8-0.3-6.1-0.4-9.8-0.4c-4.9,0-9.3,0.4-13.4,1.3c-4,0.8-7.6,2.4-10.6,4.6
	s-5.3,5.3-7,9.1s-2.5,8.7-2.5,14.5v42.9c0,9.3,2.3,16.1,6.8,20.3c4.5,4.2,11,6.3,19.3,6.3c4.7,0,8.9-0.3,12.4-0.8s6.7-1.2,9.4-1.9
	s5-1.4,6.9-2.1l4.7-1.7c0.8-0.1,1.8,1.1,2.9,3.8c1.1,2.7,2.1,5.7,3,9.1c0.9,3.4,1.6,6.6,2,9.6c0.4,3,0.4,4.8-0.2,5.3
	c-2,1.5-6.9,3.2-14.9,5c-7.9,1.8-17.8,2.7-29.7,2.7c-10.9,0-20.3-1.3-28.2-3.8c-8-2.5-14.5-6-19.6-10.4c-5.2-4.5-9-9.8-11.4-15.9
	c-2.4-6.1-3.7-12.8-3.7-20.1v-51.8c0-7.7,1-14.9,3.1-21.6s5.8-12.7,11-17.8c5.2-5.1,12.4-9.1,21.4-12.1c9.1-3,20.5-4.5,34.5-4.5
	c6.4,0,11.9,0.3,16.5,0.9c4.6,0.6,8.4,1.3,11.4,2.2c3,0.8,5.4,1.7,7.1,2.7s3,1.8,3.7,2.5C4474.8,1323.8,4474.8,1324.7,4474.7,1326.2
	L4474.7,1326.2z M4678.2,1444.2c-2.2,5.7-5,10.4-8.6,14.2c-3.5,3.8-7.5,6.6-11.9,8.6c-4.4,1.9-8.9,3.4-13.4,4.4
	c-4.5,1-8.9,1.5-13.1,1.7l-10.7,0.2c-3.3,0-7.1-0.1-11.4-0.4c-4.3-0.3-8.6-0.9-13.1-1.8s-8.9-2.3-13.2-4.3
	c-4.3-1.9-8.2-4.6-11.5-7.9c-3.4-3.3-6-7.5-8-12.5c-2-5-3-11.2-3-18.4v-60.2c0-18.7,4.8-32.1,14.4-40.2c9.6-8.2,24.2-12.2,43.7-12.2
	c8,0,15.7,0.8,23.2,2.4c7.5,1.6,14.3,4.4,20.2,8.5c5.9,4,10.7,9.5,14.2,16.4c3.5,6.9,5.3,15.6,5.3,26v54.6
	C4681.5,1431.4,4680.4,1438.4,4678.2,1444.2L4678.2,1444.2z M4641.7,1371.4c0-7.5-1.7-13.4-5.2-17.8c-3.5-4.3-8.7-6.5-15.7-6.5
	c-4.5,0-8.1,0.7-11,2.1c-2.9,1.4-5.1,3.2-6.7,5.4s-2.7,4.8-3.3,7.7c-0.6,3-1,6-1,9v45.2c0,4.2,0.6,7.8,1.9,10.9s2.9,5.6,4.9,7.5
	c2,1.9,4.3,3.4,6.9,4.3c2.6,0.9,5.2,1.3,7.8,1.3c7.1,0,12.4-2,16-6.1c3.6-4,5.3-10.7,5.3-20.1L4641.7,1371.4L4641.7,1371.4z"/>
<g>
	<path class="st2" d="M4896.5,1469.6c-0.6,1.5-2,2.1-4.4,2l-21.8-0.6c-2.4-0.1-4.2-0.6-5.4-1.4c-1.3-0.8-2.4-2.1-3.5-4.1l-48.3-77.3
		c-1.4-2.4-2.5-3.7-3.4-4c-0.8-0.3-1.3,1.1-1.3,4.2v74.8c0,3.1-0.4,5.1-1.1,6c-0.8,0.9-2.8,1.3-6,1.3h-23.8c-0.8,0-1.7-0.2-2.5-0.5
		c-0.8-0.3-1.5-0.9-2.1-1.8c-0.6-0.8-0.8-2.1-0.8-3.8v-140.3c0-0.3,0-0.8,0.1-1.5c0.1-0.7,0.3-1.4,0.5-2.2c0.3-0.8,0.8-1.5,1.5-2.1
		c0.7-0.6,1.6-0.9,2.7-0.9h22c1.8,0,3.2,0.1,4.2,0.2c1,0.1,1.8,0.4,2.4,0.7c0.6,0.3,1.1,0.8,1.5,1.3c0.3,0.6,0.9,1.3,1.6,2.1
		l48.7,79.6c1.1,2,2.1,2.8,3,2.5s1.4-2.2,1.4-5.7v-74.2c0-1.5,0.4-3.1,1.1-4.7s2-2.3,3.9-2h25.6c2.1,0,3.5,0.6,4.2,1.7s1,2.9,1,5.2
		v138.8C4897.4,1466,4897.1,1468.1,4896.5,1469.6L4896.5,1469.6z"/>
</g>
<path class="st2" d="M5099.8,1345.3c-0.5,0.8-2,1.3-4.5,1.3h-32c-1.9,0-3.2,0.3-3.9,0.7c-0.6,0.5-0.9,1.6-0.9,3.2v113.1
	c0,2.8-0.6,4.6-1.8,5.5c-1.2,0.9-3.3,1.3-6.3,1.3h-22.9c-3.3,0-5.5-0.4-6.6-1.2s-1.7-2.7-1.7-5.8v-113.1c0-1.7-0.3-2.8-0.9-3.2
	c-0.6-0.5-1.9-0.7-3.9-0.7h-30.5c-2.5,0-4-0.4-4.5-1.3c-0.5-0.8-0.7-1.9-0.7-3.1v-20.1c0-1.9,0.7-3.2,2-3.8c1.3-0.6,3.3-0.8,6-0.8
	h106c2.5,0,4.5,0.3,5.9,0.7c1.4,0.5,2.1,1.7,2.1,3.7v20.3C5100.5,1343.4,5100.3,1344.5,5099.8,1345.3L5099.8,1345.3z M5300.6,1380.3
	c-1.7,4.3-3.8,7.9-6.3,11.1c-2.5,3.1-5.2,5.8-8,7.8s-5.5,3.6-7.8,4.6c-1.5,0.7-2.3,1.1-2.4,1.3c-0.1,0.1,0.2,0.8,0.7,2.1l25.5,56.2
	c1.1,2.2,1.6,4,1.5,5.3c-0.1,1.3-1.6,1.9-4.4,1.8h-30.6c-2.9-0.1-4.8-0.7-5.5-1.7c-0.7-1-1.5-2.4-2.3-4.4l-22-48.3
	c-0.4-0.8-0.8-1.3-1.3-1.5s-1.1-0.2-2.1-0.2h-12.8c-1,0-1.6,0.2-1.8,0.7c-0.2,0.5-0.3,1.3-0.3,2.4v46.2c0,2.8-0.6,4.6-1.9,5.4
	s-3.3,1.3-6,1.3h-26.2c-2.8,0-4.3-0.6-4.7-1.9s-0.5-3.1-0.5-5.4v-140.3c0-1.9,0.4-3.3,1.1-4.2c0.8-0.8,2.5-1.3,5.1-1.3h55.2
	c9.9,0,18.6,1.2,26.1,3.7c7.5,2.4,13.8,5.8,18.8,10c4.9,4.1,8.8,9.4,11.4,15.2c2.6,5.9,3.9,12.4,3.9,19.6
	C5303.1,1371.3,5302.3,1376.1,5300.6,1380.3L5300.6,1380.3z M5261.5,1356.9c-1.3-2.3-3-4.2-5.1-5.8c-2.2-1.5-4.7-2.7-7.5-3.4
	c-2.8-0.8-5.8-1.1-8.8-1.1h-14.9c-1.5,0-2.6,0.4-3,1.3s-0.7,1.7-0.7,2.5v29.5c0,1.5,0.3,2.6,0.8,3.1c0.6,0.6,1.7,0.8,3.4,0.8h19.5
	c4.9,0,9.2-1.5,12.8-4.6c3.6-3.1,5.5-7.8,5.5-14.2C5263.4,1361.9,5262.8,1359.2,5261.5,1356.9L5261.5,1356.9z M5509.3,1444.2
	c-2.2,5.7-5,10.4-8.6,14.2c-3.5,3.8-7.5,6.6-11.9,8.6c-4.4,1.9-8.9,3.4-13.4,4.4c-4.5,1-8.9,1.5-13.1,1.7l-10.7,0.2
	c-3.3,0-7.1-0.1-11.4-0.4c-4.3-0.3-8.6-0.9-13.1-1.8s-8.9-2.3-13.2-4.3c-4.3-1.9-8.2-4.6-11.5-7.9c-3.4-3.3-6-7.5-8-12.5
	c-2-5-3-11.2-3-18.4v-60.2c0-18.7,4.8-32.1,14.4-40.2c9.6-8.2,24.2-12.2,43.7-12.2c8,0,15.7,0.8,23.2,2.4c7.5,1.6,14.3,4.4,20.2,8.5
	c5.9,4,10.7,9.5,14.2,16.4c3.5,6.9,5.3,15.6,5.3,26v54.6C5512.6,1431.4,5511.5,1438.4,5509.3,1444.2L5509.3,1444.2z M5472.8,1371.4
	c0-7.5-1.7-13.4-5.2-17.8c-3.5-4.3-8.7-6.5-15.7-6.5c-4.5,0-8.1,0.7-11,2.1c-2.9,1.4-5.1,3.2-6.7,5.4s-2.7,4.8-3.3,7.7
	c-0.6,3-1,6-1,9v45.2c0,4.2,0.6,7.8,1.9,10.9s2.9,5.6,4.9,7.5c2,1.9,4.3,3.4,6.9,4.3c2.6,0.9,5.2,1.3,7.8,1.3c7.1,0,12.4-2,16-6.1
	c3.6-4,5.3-10.7,5.3-20.1L5472.8,1371.4L5472.8,1371.4z M5693.7,1469.8c-1.3,0.5-3.2,0.7-5.8,0.7h-79.3c-2.8,0-4.4-0.6-4.8-1.7
	c-0.4-1.1-0.6-3-0.6-5.6v-140.3c0-1.9,0.4-3.3,1.3-4.2c0.8-0.8,2.4-1.3,4.8-1.3h25c3,0,5.2,0.4,6.5,1.4c1.3,0.9,1.9,2.8,1.9,5.5
	v113.3c0,1.7,0.4,2.8,1.1,3.2c0.8,0.5,2,0.7,3.7,0.7h43.1c2.6,0,4.2,0.4,4.6,1.3s0.6,2,0.6,3.6v19.2
	C5695.7,1467.9,5695,1469.3,5693.7,1469.8L5693.7,1469.8z"/>
<image style="overflow:visible;" width="1118" height="300" xlink:href="cartrack-logo.jpg"  transform="matrix(5.1296 0 0 4.9862 -25.5352 21.2237)">
</image>
</svg>
