<?xml version="1.0" encoding="utf-8"?>
<!-- Generator: Adobe Illustrator 23.0.3, SVG Export Plug-In . SVG Version: 6.00 Build 0)  -->
<svg version="1.1" id="Layer_1" xmlns="http://www.w3.org/2000/svg" xmlns:xlink="http://www.w3.org/1999/xlink" x="0px" y="0px"
	 viewBox="0 0 557.97 182.99" enable-background="new 0 0 557.97 182.99" xml:space="preserve">
<g>
	<g>
		<g>
			<path fill="#FFFFFF" d="M532.29,79.96l-18.19,17.76l-9.97,9.14l-1.33,1.28l-1.07,1.08v16.49c0,1.29-0.37,1.76-2.17,1.76h-8.99
				c-2.24,0-2.99-0.47-2.99-2.23V80.17c0-1.76,0.9-2.16,2.99-2.16h9.21c1.95,0,1.95,0.61,1.95,2.16V94.9l15.28-15.14
				c1.87-1.76,1.72-1.76,3.14-1.76h10.26C532.6,78,534.32,78.07,532.29,79.96z"/>
			<path fill="#FFFFFF" d="M504.54,107.39l11.5-5.05l18.57,23.12c1.42,1.76,0.3,2.03-1.65,2.03h-10.63c-1.5,0-1.87-0.2-3-1.55
				L504.54,107.39z"/>
			<path fill="#FFFFFF" d="M210.56,79.96c0.75,0.61-2.1,8.65-3.15,8.39c-1.8-0.47-3.97-1.36-9.44-1.36
				c-6.89,0-11.98,1.89-11.98,9.54v13.85c0,6.01,3.37,8.59,9.36,8.59c6.74,0,10.19-1.62,11.98-2.1c1.2-0.27,3.6,8.32,2.77,9
				c-1.42,0.94-7.49,2.5-15.95,2.5c-15.66,0-22.55-6.89-22.55-16.23V95.37c0-9.86,5.09-18.11,25.1-18.11
				C205.99,77.26,209.51,79.09,210.56,79.96z"/>
			<path fill="#FFFFFF" d="M342.81,87.4h-6.53c-1.35,0-1.72,0.2-1.72,1.28v36.57c0,1.76-0.75,2.23-2.92,2.23h-8.24
				c-2.4,0-3-0.27-3-2.23V88.68c0-1.08-0.38-1.28-1.73-1.28h-10.93c-1.8,0-1.87-0.61-1.87-1.42v-6.49c0-1.28,0.98-1.48,2.84-1.48
				h38.05c0.54,0,1.01,0.01,1.41,0.06L342.81,87.4z"/>
			<path fill="#FFFFFF" d="M483.24,79.96c0.75,0.61-2.1,8.65-3.14,8.39c-1.8-0.47-3.97-1.36-9.44-1.36
				c-6.89,0-11.98,1.89-11.98,9.54v13.85c0,6.01,3.37,8.59,9.36,8.59c6.74,0,10.19-1.62,11.98-2.1c1.2-0.27,3.6,8.32,2.77,9
				c-1.42,0.94-7.49,2.5-15.96,2.5c-15.65,0-22.54-6.89-22.54-16.23V95.37c0-9.86,5.09-18.11,25.09-18.11
				C478.67,77.26,482.19,79.09,483.24,79.96z"/>
			<path fill-rule="evenodd" clip-rule="evenodd" fill="#FFFFFF" d="M239.91,110.25l-5.77-17.64l-5.77,17.64H239.91z M259.46,125.26
				c0.75,2.16-0.3,2.23-2.4,2.23h-9.59c-1.8,0-1.87-0.4-2.32-1.76l-2.47-7.3h-17.08l-2.4,7.3c-0.45,1.36-0.75,1.76-2.32,1.76h-8.32
				c-1.12,0-1.72-0.4-1.04-2.23l15.21-45.09c0.52-1.62,1.12-2.16,3.29-2.16h10.86c2.25,0,2.77,0.54,3.37,2.16L259.46,125.26z"/>
			<path fill-rule="evenodd" clip-rule="evenodd" fill="#FFFFFF" d="M291.44,93.35c0-3.92-3.89-5.95-8.31-5.95h-5.32
				c-1.12,0-1.35,0.67-1.35,1.22v9.53c0,1.01,0.3,1.29,1.5,1.29h6.97C288.44,99.43,291.44,97.47,291.44,93.35z M305.67,93.69
				c0,6.82-5.4,11.01-8.84,12.23c-1.05,0.4-0.97,0.27-0.6,1.08l9.14,18.18c0.75,1.42,0.9,2.37-1.05,2.29h-10.94
				c-2.1-0.07-2.17-0.74-2.77-1.96l-7.86-15.62c-0.3-0.54-0.53-0.54-1.2-0.54h-4.57c-0.67,0-0.75,0.27-0.75,1.01v14.94
				c0,1.76-0.83,2.16-2.85,2.16h-9.44c-2.02,0-1.87-0.81-1.87-2.37V79.76c0-1.28,0.37-1.76,2.25-1.76h19.78
				C298.32,78,305.67,84.56,305.67,93.69z"/>
			<path fill-rule="evenodd" clip-rule="evenodd" fill="#FFFFFF" d="M378.18,93.35c0-3.92-3.9-5.95-8.31-5.95h-5.32
				c-1.12,0-1.35,0.67-1.35,1.22v9.53c0,1.01,0.3,1.29,1.5,1.29h6.97C375.19,99.43,378.18,97.47,378.18,93.35z M392.41,93.69
				c0,6.82-5.39,11.01-8.84,12.23c-1.05,0.4-0.97,0.27-0.6,1.08l9.14,18.18c0.75,1.42,0.9,2.37-1.05,2.29h-10.93
				c-2.1-0.07-2.17-0.74-2.77-1.96l-7.86-15.62c-0.3-0.54-0.52-0.54-1.2-0.54h-4.57c-0.67,0-0.75,0.27-0.75,1.01v14.94
				c0,1.76-0.82,2.16-2.85,2.16h-9.43c-2.03,0-1.88-0.81-1.88-2.37V79.76c0-1.28,0.37-1.76,2.25-1.76h19.77
				C385.07,78,392.41,84.56,392.41,93.69z"/>
			<path fill-rule="evenodd" clip-rule="evenodd" fill="#FFFFFF" d="M422.66,110.25l-5.77-17.64l-5.77,17.64H422.66z M442.2,125.26
				c0.75,2.16-0.3,2.23-2.4,2.23h-9.59c-1.8,0-1.87-0.4-2.32-1.76l-2.47-7.3h-17.08l-2.4,7.3c-0.45,1.36-0.75,1.76-2.32,1.76h-8.31
				c-1.12,0-1.72-0.4-1.05-2.23l15.2-45.09c0.52-1.62,1.13-2.16,3.3-2.16h10.86c2.25,0,2.77,0.54,3.37,2.16L442.2,125.26z"/>
		</g>
		<g>
			<path fill="#EC732B" d="M93.71,37.45c0,5.37-4.35,9.72-9.73,9.72c-5.37,0-9.72-4.35-9.72-9.72c0-5.37,4.35-9.73,9.72-9.73
				C89.36,27.73,93.71,32.09,93.71,37.45z"/>
			<g>
				<path fill="#FFFFFF" d="M131.44,152.57c-1.9,2.41-4.66,3.85-7.75,3.85c-2.64,0-5.04-1.03-6.79-2.73l-18.44-18.5
					c-8.06-8.06-21.13-8.06-29.19,0l-17.72,18.36c-1.77,1.85-4.27,3-7.03,3c-3.05,0-5.79-1.39-7.57-3.59
					c-8.47-10.8-13.34-22.18-13.34-37.48c0-1.25,0.04-2.49,0.11-3.73H42.5c-0.09,1.23-0.14,2.47-0.14,3.73c0,7.9,1.82,15.31,5,21.77
					l36.9-61.79l36.47,61.71c3.16-6.45,4.96-13.83,4.96-21.69c0-1.26-0.04-2.51-0.13-3.73h18.79c0.07,1.23,0.11,2.48,0.11,3.73
					C144.46,130.55,139.72,141.87,131.44,152.57z"/>
			</g>
			<g>
				<path fill="#FFFFFF" d="M24.39,105.69c4.68-28.72,29.6-50.64,59.64-50.64c30.04,0,54.96,21.92,59.64,50.64h-18.92
					c-4.11-20.83-21.06-35.99-40.72-35.99c-19.66,0-36.61,15.16-40.72,35.99H24.39z"/>
			</g>
		</g>
	</g>
	<g>
		<path fill="#EC732B" d="M181.49,150.59c-0.95,0.73-2.44,1.1-4.46,1.1h-1.2c-0.17,0-0.27,0.03-0.32,0.09
			c-0.05,0.06-0.08,0.18-0.08,0.37v3.38c0,0.25-0.06,0.42-0.17,0.49c-0.11,0.08-0.3,0.11-0.55,0.11h-2.38
			c-0.25,0-0.39-0.06-0.43-0.17c-0.03-0.11-0.05-0.28-0.05-0.49v-12.75c0-0.18,0.03-0.3,0.1-0.38c0.07-0.08,0.23-0.11,0.47-0.11
			h5.02c1.9,0,3.29,0.4,4.16,1.19c0.87,0.79,1.31,2.01,1.31,3.66C182.92,148.69,182.45,149.86,181.49,150.59z M179.12,145.94
			c-0.11-0.24-0.27-0.44-0.46-0.59c-0.19-0.15-0.41-0.27-0.67-0.34c-0.25-0.08-0.52-0.11-0.8-0.11h-1.36
			c-0.14,0-0.23,0.04-0.28,0.11c-0.04,0.08-0.07,0.15-0.07,0.23v3.31c0,0.14,0.03,0.23,0.08,0.29c0.05,0.05,0.15,0.08,0.31,0.08
			h1.62c0.23,0,0.45-0.04,0.67-0.11c0.22-0.08,0.41-0.2,0.57-0.36c0.17-0.16,0.3-0.38,0.4-0.65c0.1-0.27,0.15-0.59,0.15-0.97
			C179.29,146.47,179.24,146.18,179.12,145.94z"/>
		<path fill="#EC732B" d="M201.06,153.67c-0.18,0.51-0.43,0.93-0.73,1.27c-0.3,0.34-0.65,0.61-1.03,0.8
			c-0.38,0.19-0.77,0.33-1.18,0.43c-0.41,0.09-0.8,0.16-1.19,0.18c-0.39,0.03-0.73,0.04-1.04,0.04c-0.49,0-1.04-0.04-1.65-0.13
			c-0.61-0.09-1.18-0.28-1.73-0.57c-0.54-0.29-1-0.72-1.37-1.27c-0.37-0.56-0.55-1.31-0.55-2.26v-9.43c0-0.18,0.03-0.3,0.1-0.38
			c0.07-0.08,0.21-0.11,0.41-0.11h2.22c0.27,0,0.46,0.04,0.57,0.12c0.11,0.08,0.17,0.25,0.17,0.5v8.15c0,0.79,0.17,1.38,0.52,1.8
			c0.35,0.41,0.78,0.62,1.28,0.62c0.38,0,0.69-0.06,0.93-0.18c0.24-0.12,0.43-0.29,0.56-0.51c0.13-0.22,0.22-0.48,0.28-0.78
			c0.05-0.3,0.08-0.62,0.08-0.98v-8.25c0-0.18,0.03-0.3,0.1-0.38c0.07-0.08,0.21-0.11,0.41-0.11h2.34c0.25,0,0.44,0.04,0.57,0.12
			c0.13,0.08,0.19,0.25,0.19,0.5v8.97C201.34,152.55,201.24,153.17,201.06,153.67z"/>
		<path fill="#EC732B" d="M219.53,144.76c-0.04,0.08-0.18,0.11-0.41,0.11h-2.91c-0.18,0-0.29,0.02-0.35,0.07
			c-0.06,0.04-0.09,0.14-0.09,0.29v10.28c0,0.25-0.05,0.42-0.16,0.5c-0.11,0.08-0.3,0.12-0.58,0.12h-2.08c-0.3,0-0.5-0.04-0.6-0.1
			c-0.1-0.07-0.15-0.24-0.15-0.52v-10.28c0-0.15-0.03-0.25-0.09-0.29c-0.06-0.04-0.17-0.07-0.35-0.07H209
			c-0.23,0-0.36-0.04-0.41-0.11c-0.04-0.08-0.07-0.17-0.07-0.29v-1.82c0-0.18,0.06-0.29,0.18-0.34c0.12-0.05,0.3-0.08,0.54-0.08
			h9.64c0.23,0,0.41,0.02,0.53,0.07c0.13,0.04,0.19,0.16,0.19,0.33v1.84C219.6,144.59,219.58,144.68,219.53,144.76z"/>
		<path fill="#EC732B" d="M236.86,144.76c-0.04,0.08-0.18,0.11-0.41,0.11h-2.91c-0.18,0-0.29,0.02-0.35,0.07
			c-0.06,0.04-0.09,0.14-0.09,0.29v10.28c0,0.25-0.05,0.42-0.16,0.5c-0.11,0.08-0.3,0.12-0.58,0.12h-2.08c-0.3,0-0.5-0.04-0.6-0.1
			c-0.1-0.07-0.15-0.24-0.15-0.52v-10.28c0-0.15-0.03-0.25-0.09-0.29c-0.06-0.04-0.17-0.07-0.35-0.07h-2.77
			c-0.23,0-0.36-0.04-0.41-0.11c-0.04-0.08-0.07-0.17-0.07-0.29v-1.82c0-0.18,0.06-0.29,0.18-0.34c0.12-0.05,0.3-0.08,0.54-0.08
			h9.64c0.23,0,0.41,0.02,0.53,0.07c0.13,0.04,0.19,0.16,0.19,0.33v1.84C236.93,144.59,236.91,144.68,236.86,144.76z"/>
		<path fill="#EC732B" d="M247.74,156.04c-0.08,0.07-0.22,0.1-0.43,0.1H245c-0.26,0-0.45-0.04-0.56-0.11
			c-0.11-0.08-0.16-0.23-0.16-0.47v-12.79c0-0.21,0.04-0.36,0.12-0.43c0.08-0.07,0.27-0.1,0.56-0.1h2.4c0.21,0,0.35,0.05,0.41,0.14
			c0.06,0.09,0.08,0.25,0.08,0.47v12.83C247.86,155.85,247.82,155.97,247.74,156.04z"/>
		<path fill="#EC732B" d="M267.58,156.06c-0.05,0.13-0.18,0.19-0.4,0.18l-1.98-0.06c-0.21-0.01-0.38-0.05-0.49-0.12
			c-0.11-0.07-0.22-0.19-0.32-0.37l-4.39-7.03c-0.13-0.22-0.23-0.34-0.3-0.36c-0.08-0.03-0.11,0.1-0.11,0.38v6.8
			c0,0.28-0.03,0.46-0.1,0.54c-0.07,0.08-0.25,0.12-0.54,0.12h-1.98c-0.05,0-0.11,0-0.19,0c-0.08,0-0.15-0.02-0.23-0.05
			c-0.08-0.03-0.14-0.09-0.19-0.16c-0.05-0.08-0.08-0.19-0.08-0.34v-12.75c0-0.03,0-0.07,0.01-0.13c0.01-0.06,0.02-0.13,0.05-0.2
			c0.03-0.07,0.07-0.13,0.13-0.19c0.06-0.06,0.15-0.09,0.25-0.09h2c0.16,0,0.29,0.01,0.38,0.02c0.09,0.01,0.16,0.04,0.22,0.07
			c0.06,0.03,0.1,0.07,0.13,0.12c0.03,0.05,0.08,0.11,0.14,0.19l4.43,7.24c0.1,0.18,0.19,0.25,0.28,0.23s0.12-0.2,0.12-0.51v-6.75
			c0-0.14,0.03-0.28,0.1-0.43c0.07-0.15,0.19-0.21,0.35-0.18h2.32c0.19,0,0.31,0.05,0.38,0.15c0.06,0.1,0.09,0.26,0.09,0.47v12.62
			C267.66,155.73,267.63,155.92,267.58,156.06z"/>
		<path fill="#EC732B" d="M286.69,153.51c-0.11,0.53-0.34,1-0.68,1.43c-0.35,0.43-0.86,0.78-1.53,1.04c-0.67,0.27-1.57,0.4-2.7,0.4
			c-1.09,0-2-0.13-2.75-0.38c-0.74-0.25-1.33-0.6-1.78-1.04c-0.44-0.44-0.76-0.94-0.95-1.52c-0.19-0.58-0.29-1.19-0.29-1.85v-4.26
			c0-0.72,0.09-1.4,0.26-2.04c0.17-0.64,0.49-1.2,0.96-1.69c0.47-0.49,1.11-0.87,1.94-1.16c0.82-0.29,1.89-0.43,3.19-0.43
			c0.62,0,1.16,0.04,1.61,0.1c0.45,0.07,0.83,0.15,1.13,0.25c0.3,0.09,0.54,0.19,0.71,0.29c0.17,0.09,0.29,0.17,0.35,0.24
			c0.05,0.05,0.05,0.21-0.01,0.48c-0.06,0.27-0.14,0.54-0.24,0.84c-0.1,0.29-0.21,0.55-0.33,0.77c-0.12,0.22-0.22,0.31-0.29,0.28
			c-0.11-0.05-0.24-0.1-0.39-0.16c-0.15-0.06-0.32-0.11-0.52-0.16c-0.2-0.05-0.44-0.09-0.72-0.12c-0.28-0.03-0.61-0.05-0.99-0.05
			c-0.42,0-0.81,0.04-1.17,0.1c-0.36,0.07-0.67,0.21-0.94,0.41c-0.27,0.2-0.48,0.49-0.64,0.87c-0.16,0.38-0.24,0.87-0.24,1.48v3.57
			c0,0.91,0.15,1.58,0.44,2.01c0.29,0.43,0.82,0.65,1.58,0.65c0.66,0,1.11-0.14,1.37-0.41c0.25-0.27,0.38-0.66,0.38-1.15v-1.42
			c0-0.1-0.02-0.19-0.05-0.28c-0.03-0.08-0.14-0.13-0.31-0.14h-0.95c-0.14,0-0.24-0.02-0.29-0.07c-0.06-0.04-0.09-0.15-0.09-0.33
			v-1.5c0-0.1,0.01-0.19,0.03-0.28c0.02-0.08,0.1-0.12,0.24-0.12H286c0.38,0,0.62,0.05,0.71,0.14c0.09,0.09,0.14,0.31,0.14,0.64v3
			C286.85,152.46,286.8,152.99,286.69,153.51z"/>
		<path fill="#EC732B" d="M316.5,143.24c-0.15,0.27-0.36,0.63-0.62,1.09c-0.26,0.46-0.54,0.96-0.84,1.49
			c-0.3,0.53-0.6,1.07-0.91,1.62c-0.31,0.54-0.59,1.04-0.85,1.48c-0.25,0.44-0.53,0.94-0.84,1.5v5.19c0,0.22-0.06,0.36-0.17,0.43
			c-0.11,0.07-0.3,0.1-0.57,0.1h-2.31c-0.21,0-0.36-0.03-0.42-0.09c-0.07-0.06-0.1-0.18-0.1-0.34v-5.3l-4.52-7.64
			c-0.15-0.25-0.17-0.41-0.07-0.46c0.11-0.05,0.28-0.08,0.5-0.08h2.68c0.24,0,0.4,0.03,0.47,0.09c0.07,0.06,0.17,0.2,0.29,0.42
			l2.8,4.88c0.38-0.68,0.7-1.26,0.96-1.73c0.26-0.47,0.54-0.95,0.81-1.44c0.28-0.49,0.51-0.9,0.68-1.21
			c0.18-0.31,0.27-0.48,0.29-0.5c0.06-0.1,0.11-0.18,0.15-0.25c0.04-0.06,0.08-0.11,0.13-0.15c0.05-0.04,0.11-0.07,0.19-0.09
			c0.08-0.02,0.18-0.03,0.32-0.03h1.73c0.25,0,0.43,0.03,0.53,0.08c0.1,0.05,0.07,0.22-0.09,0.51
			C316.73,142.83,316.65,142.97,316.5,143.24z"/>
		<path fill="#EC732B" d="M334.81,153.75c-0.2,0.52-0.46,0.95-0.78,1.29c-0.32,0.34-0.68,0.6-1.08,0.78c-0.4,0.18-0.8,0.31-1.22,0.4
			c-0.41,0.09-0.81,0.14-1.19,0.15c-0.38,0.01-0.7,0.02-0.97,0.02c-0.3,0-0.65-0.01-1.04-0.04c-0.39-0.03-0.78-0.08-1.19-0.16
			c-0.41-0.08-0.8-0.21-1.2-0.39c-0.39-0.18-0.74-0.42-1.04-0.72c-0.3-0.3-0.55-0.68-0.73-1.14c-0.18-0.46-0.28-1.01-0.28-1.67
			v-5.47c0-1.7,0.44-2.92,1.31-3.66c0.87-0.74,2.2-1.11,3.97-1.11c0.72,0,1.43,0.07,2.11,0.22c0.68,0.15,1.3,0.4,1.83,0.77
			c0.54,0.37,0.97,0.86,1.29,1.49c0.32,0.63,0.48,1.41,0.48,2.37v4.96C335.1,152.59,335.01,153.23,334.81,153.75z M331.49,147.14
			c0-0.68-0.16-1.22-0.47-1.62c-0.32-0.39-0.79-0.59-1.43-0.59c-0.41,0-0.74,0.06-1,0.19c-0.26,0.13-0.46,0.29-0.61,0.49
			c-0.15,0.2-0.25,0.44-0.3,0.7c-0.06,0.27-0.09,0.54-0.09,0.82v4.1c0,0.38,0.06,0.71,0.17,0.99c0.11,0.28,0.26,0.51,0.45,0.68
			c0.18,0.18,0.39,0.31,0.63,0.39c0.23,0.08,0.47,0.12,0.71,0.12c0.65,0,1.13-0.18,1.45-0.55c0.32-0.37,0.48-0.98,0.48-1.82V147.14z
			"/>
		<path fill="#EC732B" d="M353.74,153.67c-0.18,0.51-0.43,0.93-0.73,1.27c-0.3,0.34-0.65,0.61-1.03,0.8
			c-0.38,0.19-0.77,0.33-1.18,0.43c-0.41,0.09-0.8,0.16-1.19,0.18c-0.39,0.03-0.73,0.04-1.04,0.04c-0.49,0-1.04-0.04-1.65-0.13
			c-0.61-0.09-1.18-0.28-1.73-0.57c-0.54-0.29-1-0.72-1.37-1.27c-0.37-0.56-0.55-1.31-0.55-2.26v-9.43c0-0.18,0.03-0.3,0.1-0.38
			c0.07-0.08,0.21-0.11,0.41-0.11h2.22c0.27,0,0.46,0.04,0.57,0.12c0.11,0.08,0.17,0.25,0.17,0.5v8.15c0,0.79,0.17,1.38,0.52,1.8
			c0.35,0.41,0.78,0.62,1.28,0.62c0.38,0,0.69-0.06,0.93-0.18c0.24-0.12,0.43-0.29,0.56-0.51c0.13-0.22,0.23-0.48,0.28-0.78
			c0.05-0.3,0.08-0.62,0.08-0.98v-8.25c0-0.18,0.04-0.3,0.1-0.38c0.07-0.08,0.21-0.11,0.41-0.11h2.34c0.25,0,0.44,0.04,0.57,0.12
			c0.13,0.08,0.19,0.25,0.19,0.5v8.97C354.01,152.55,353.92,153.17,353.74,153.67z"/>
		<path fill="#EC732B" d="M376.02,156.04c-0.08,0.07-0.22,0.1-0.43,0.1h-2.31c-0.26,0-0.45-0.04-0.56-0.11
			c-0.11-0.08-0.16-0.23-0.16-0.47v-12.79c0-0.21,0.04-0.36,0.12-0.43c0.08-0.07,0.27-0.1,0.56-0.1h2.4c0.21,0,0.35,0.05,0.41,0.14
			c0.06,0.09,0.08,0.25,0.08,0.47v12.83C376.13,155.85,376.09,155.97,376.02,156.04z"/>
		<path fill="#EC732B" d="M395.86,156.06c-0.05,0.13-0.18,0.19-0.4,0.18l-1.98-0.06c-0.21-0.01-0.38-0.05-0.49-0.12
			c-0.11-0.07-0.22-0.19-0.32-0.37l-4.39-7.03c-0.13-0.22-0.23-0.34-0.3-0.36c-0.08-0.03-0.11,0.1-0.11,0.38v6.8
			c0,0.28-0.04,0.46-0.1,0.54c-0.07,0.08-0.25,0.12-0.54,0.12h-1.98c-0.05,0-0.11,0-0.19,0c-0.08,0-0.15-0.02-0.23-0.05
			c-0.08-0.03-0.14-0.09-0.19-0.16c-0.05-0.08-0.08-0.19-0.08-0.34v-12.75c0-0.03,0-0.07,0.01-0.13c0.01-0.06,0.02-0.13,0.05-0.2
			c0.03-0.07,0.07-0.13,0.13-0.19c0.06-0.06,0.15-0.09,0.25-0.09h2c0.16,0,0.29,0.01,0.38,0.02c0.09,0.01,0.16,0.04,0.22,0.07
			c0.06,0.03,0.1,0.07,0.13,0.12c0.03,0.05,0.08,0.11,0.14,0.19l4.43,7.24c0.1,0.18,0.19,0.25,0.28,0.23s0.12-0.2,0.12-0.51v-6.75
			c0-0.14,0.03-0.28,0.1-0.43c0.07-0.15,0.19-0.21,0.35-0.18h2.32c0.19,0,0.31,0.05,0.38,0.15c0.06,0.1,0.09,0.26,0.09,0.47v12.62
			C395.94,155.73,395.91,155.92,395.86,156.06z"/>
		<path fill="#EC732B" d="M424.46,143.02c-0.01,0.13-0.04,0.29-0.09,0.47c-0.04,0.18-0.1,0.37-0.16,0.57
			c-0.06,0.2-0.13,0.39-0.2,0.55c-0.07,0.16-0.14,0.3-0.21,0.4c-0.07,0.1-0.12,0.15-0.16,0.13c-0.11-0.04-0.24-0.08-0.37-0.12
			c-0.13-0.04-0.29-0.09-0.48-0.12c-0.18-0.04-0.4-0.07-0.66-0.1c-0.25-0.03-0.55-0.04-0.89-0.04c-0.44,0-0.85,0.04-1.22,0.11
			c-0.37,0.08-0.69,0.22-0.96,0.42c-0.27,0.2-0.48,0.48-0.64,0.83c-0.15,0.35-0.23,0.79-0.23,1.32v3.9c0,0.85,0.21,1.46,0.62,1.84
			c0.41,0.38,1,0.57,1.76,0.57c0.43,0,0.81-0.03,1.13-0.08c0.32-0.05,0.61-0.11,0.86-0.17c0.25-0.06,0.46-0.13,0.63-0.19
			c0.17-0.06,0.31-0.11,0.43-0.15c0.08-0.01,0.16,0.1,0.27,0.34c0.1,0.24,0.19,0.52,0.28,0.83c0.08,0.31,0.14,0.6,0.18,0.87
			c0.04,0.27,0.03,0.43-0.02,0.48c-0.18,0.14-0.63,0.29-1.35,0.46c-0.72,0.16-1.62,0.25-2.7,0.25c-0.99,0-1.84-0.11-2.57-0.34
			c-0.72-0.23-1.32-0.54-1.79-0.95c-0.47-0.41-0.81-0.89-1.04-1.44c-0.22-0.56-0.33-1.17-0.33-1.82v-4.71c0-0.7,0.1-1.35,0.29-1.97
			c0.19-0.61,0.52-1.15,1-1.62c0.48-0.46,1.12-0.83,1.95-1.1c0.82-0.27,1.87-0.41,3.14-0.41c0.58,0,1.08,0.03,1.5,0.09
			c0.42,0.06,0.76,0.12,1.04,0.2c0.27,0.08,0.49,0.16,0.65,0.25c0.16,0.09,0.27,0.17,0.33,0.23
			C424.47,142.81,424.47,142.89,424.46,143.02z"/>
		<path fill="#EC732B" d="M442.96,153.75c-0.2,0.52-0.46,0.95-0.78,1.29c-0.32,0.34-0.68,0.6-1.08,0.78c-0.4,0.18-0.8,0.31-1.22,0.4
			c-0.41,0.09-0.81,0.14-1.19,0.15c-0.38,0.01-0.7,0.02-0.97,0.02c-0.3,0-0.65-0.01-1.04-0.04s-0.78-0.08-1.19-0.16
			c-0.41-0.08-0.8-0.21-1.2-0.39c-0.39-0.18-0.74-0.42-1.04-0.72c-0.3-0.3-0.55-0.68-0.73-1.14c-0.18-0.46-0.28-1.01-0.28-1.67
			v-5.47c0-1.7,0.44-2.92,1.31-3.66c0.87-0.74,2.2-1.11,3.97-1.11c0.72,0,1.43,0.07,2.11,0.22c0.68,0.15,1.3,0.4,1.83,0.77
			c0.54,0.37,0.97,0.86,1.29,1.49c0.32,0.63,0.48,1.41,0.48,2.37v4.96C443.25,152.59,443.16,153.23,442.96,153.75z M439.64,147.14
			c0-0.68-0.16-1.22-0.47-1.62c-0.32-0.39-0.79-0.59-1.43-0.59c-0.41,0-0.74,0.06-1,0.19c-0.26,0.13-0.46,0.29-0.61,0.49
			c-0.15,0.2-0.25,0.44-0.3,0.7c-0.06,0.27-0.09,0.54-0.09,0.82v4.1c0,0.38,0.06,0.71,0.17,0.99c0.11,0.28,0.26,0.51,0.45,0.68
			c0.18,0.18,0.39,0.31,0.63,0.39c0.23,0.08,0.47,0.12,0.71,0.12c0.65,0,1.13-0.18,1.45-0.55s0.48-0.98,0.48-1.82V147.14z"/>
		<path fill="#EC732B" d="M462.81,156.06c-0.05,0.13-0.18,0.19-0.4,0.18l-1.98-0.06c-0.21-0.01-0.38-0.05-0.49-0.12
			c-0.11-0.07-0.22-0.19-0.32-0.37l-4.39-7.03c-0.13-0.22-0.23-0.34-0.3-0.36c-0.08-0.03-0.11,0.1-0.11,0.38v6.8
			c0,0.28-0.04,0.46-0.1,0.54c-0.07,0.08-0.25,0.12-0.54,0.12h-1.98c-0.05,0-0.11,0-0.19,0c-0.08,0-0.15-0.02-0.23-0.05
			c-0.08-0.03-0.14-0.09-0.19-0.16c-0.05-0.08-0.08-0.19-0.08-0.34v-12.75c0-0.03,0-0.07,0.01-0.13c0.01-0.06,0.02-0.13,0.05-0.2
			c0.03-0.07,0.07-0.13,0.13-0.19c0.06-0.06,0.15-0.09,0.25-0.09h2c0.16,0,0.29,0.01,0.38,0.02c0.09,0.01,0.16,0.04,0.22,0.07
			c0.06,0.03,0.1,0.07,0.13,0.12c0.03,0.05,0.08,0.11,0.14,0.19l4.43,7.24c0.1,0.18,0.19,0.25,0.28,0.23s0.12-0.2,0.12-0.51v-6.75
			c0-0.14,0.03-0.28,0.1-0.43c0.07-0.15,0.19-0.21,0.35-0.18h2.32c0.19,0,0.31,0.05,0.38,0.15c0.06,0.1,0.09,0.26,0.09,0.47v12.62
			C462.89,155.73,462.86,155.92,462.81,156.06z"/>
		<path fill="#EC732B" d="M481.29,144.76c-0.04,0.08-0.18,0.11-0.41,0.11h-2.91c-0.18,0-0.29,0.02-0.35,0.07
			c-0.06,0.04-0.08,0.14-0.08,0.29v10.28c0,0.25-0.05,0.42-0.16,0.5c-0.11,0.08-0.3,0.12-0.58,0.12h-2.08c-0.3,0-0.5-0.04-0.6-0.1
			c-0.1-0.07-0.15-0.24-0.15-0.52v-10.28c0-0.15-0.03-0.25-0.08-0.29c-0.06-0.04-0.17-0.07-0.35-0.07h-2.78
			c-0.23,0-0.36-0.04-0.41-0.11c-0.04-0.08-0.07-0.17-0.07-0.29v-1.82c0-0.18,0.06-0.29,0.18-0.34c0.12-0.05,0.3-0.08,0.54-0.08
			h9.64c0.23,0,0.41,0.02,0.53,0.07c0.13,0.04,0.19,0.16,0.19,0.33v1.84C481.36,144.59,481.33,144.68,481.29,144.76z"/>
		<path fill="#EC732B" d="M499.54,147.94c-0.15,0.39-0.34,0.72-0.57,1.01c-0.23,0.29-0.47,0.52-0.73,0.71
			c-0.26,0.19-0.5,0.33-0.71,0.42c-0.14,0.06-0.21,0.1-0.22,0.11c-0.01,0.01,0.02,0.08,0.07,0.19l2.32,5.11
			c0.1,0.2,0.15,0.36,0.13,0.49c-0.01,0.12-0.15,0.17-0.4,0.16h-2.78c-0.27-0.01-0.43-0.06-0.5-0.15c-0.06-0.09-0.13-0.22-0.21-0.4
			l-2-4.39c-0.04-0.08-0.08-0.12-0.11-0.13c-0.04-0.01-0.1-0.02-0.19-0.02h-1.16c-0.09,0-0.14,0.02-0.16,0.07
			c-0.02,0.04-0.03,0.12-0.03,0.22v4.2c0,0.25-0.06,0.42-0.17,0.49c-0.11,0.08-0.3,0.11-0.55,0.11h-2.38
			c-0.25,0-0.39-0.06-0.43-0.17c-0.03-0.11-0.05-0.28-0.05-0.49v-12.75c0-0.18,0.03-0.3,0.1-0.38c0.07-0.08,0.22-0.11,0.46-0.11
			h5.02c0.9,0,1.69,0.11,2.38,0.33c0.68,0.22,1.25,0.53,1.71,0.91c0.46,0.39,0.8,0.85,1.04,1.39c0.23,0.54,0.35,1.13,0.35,1.78
			C499.77,147.12,499.7,147.56,499.54,147.94z M495.99,145.81c-0.11-0.21-0.27-0.38-0.47-0.52c-0.2-0.14-0.42-0.24-0.68-0.31
			c-0.25-0.07-0.52-0.1-0.8-0.1h-1.36c-0.14,0-0.23,0.04-0.28,0.11c-0.04,0.08-0.07,0.15-0.07,0.23v2.68c0,0.14,0.02,0.24,0.08,0.29
			c0.05,0.05,0.15,0.08,0.31,0.08h1.78c0.45,0,0.83-0.14,1.17-0.42c0.33-0.28,0.5-0.71,0.5-1.29
			C496.16,146.27,496.1,146.02,495.99,145.81z"/>
		<path fill="#EC732B" d="M518.52,153.75c-0.2,0.52-0.46,0.95-0.78,1.29c-0.32,0.34-0.68,0.6-1.08,0.78c-0.4,0.18-0.8,0.31-1.22,0.4
			c-0.41,0.09-0.81,0.14-1.19,0.15c-0.38,0.01-0.7,0.02-0.97,0.02c-0.3,0-0.65-0.01-1.04-0.04c-0.39-0.03-0.78-0.08-1.19-0.16
			c-0.41-0.08-0.8-0.21-1.2-0.39c-0.39-0.18-0.74-0.42-1.04-0.72c-0.3-0.3-0.55-0.68-0.73-1.14c-0.18-0.46-0.28-1.01-0.28-1.67
			v-5.47c0-1.7,0.44-2.92,1.31-3.66c0.87-0.74,2.2-1.11,3.97-1.11c0.72,0,1.43,0.07,2.11,0.22c0.68,0.15,1.3,0.4,1.83,0.77
			c0.54,0.37,0.97,0.86,1.29,1.49c0.32,0.63,0.48,1.41,0.48,2.37v4.96C518.81,152.59,518.72,153.23,518.52,153.75z M515.2,147.14
			c0-0.68-0.16-1.22-0.47-1.62c-0.32-0.39-0.79-0.59-1.43-0.59c-0.41,0-0.74,0.06-1,0.19c-0.26,0.13-0.46,0.29-0.61,0.49
			c-0.15,0.2-0.25,0.44-0.3,0.7c-0.06,0.27-0.09,0.54-0.09,0.82v4.1c0,0.38,0.06,0.71,0.17,0.99c0.11,0.28,0.26,0.51,0.45,0.68
			c0.18,0.18,0.39,0.31,0.63,0.39c0.23,0.08,0.47,0.12,0.71,0.12c0.65,0,1.13-0.18,1.45-0.55s0.48-0.98,0.48-1.82V147.14z"/>
		<path fill="#EC732B" d="M535.28,156.08c-0.12,0.04-0.29,0.07-0.52,0.07h-7.21c-0.25,0-0.4-0.05-0.43-0.15
			c-0.04-0.1-0.06-0.27-0.06-0.51v-12.75c0-0.18,0.04-0.3,0.11-0.38c0.08-0.08,0.22-0.11,0.43-0.11h2.27c0.28,0,0.47,0.04,0.59,0.12
			c0.11,0.08,0.17,0.25,0.17,0.5v10.3c0,0.15,0.04,0.25,0.1,0.29c0.07,0.04,0.18,0.07,0.33,0.07h3.92c0.24,0,0.38,0.04,0.42,0.11
			c0.04,0.08,0.06,0.18,0.06,0.32v1.75C535.46,155.91,535.4,156.03,535.28,156.08z"/>
	</g>
</g>
</svg>
