<svg height='300px' width='300px'  fill="#FFFFFF" xmlns="http://www.w3.org/2000/svg" xmlns:xlink="http://www.w3.org/1999/xlink" version="1.1" x="0px" y="0px" viewBox="0 0 90 90" enable-background="new 0 0 90 90" xml:space="preserve"><path d="M33.756,12.44c0.119-0.067,0.088-0.109,0.506,0.088c0.418,0.198,1.082,0.713,1.734,1.419  c1.301,1.424,2.607,3.581,3.287,5.005c0.021,0.047,0.047,0.088,0.072,0.129c1.918,3.306,2.744,5.831,2.77,7.421  c0.027,1.586-0.396,2.271-1.744,3.045l-3.486,2.006c-2.268,1.305-3.338,3.644-3.604,5.826c-0.268,2.183,0.131,4.304,1.102,5.981  l8.59,14.806c0.977,1.673,2.627,3.077,4.66,3.939c2.033,0.863,4.604,1.107,6.871-0.197l3.49-1.996  c1.348-0.774,2.152-0.796,3.521,0.02c1.373,0.816,3.154,2.786,5.072,6.09c0.027,0.048,0.053,0.089,0.084,0.136  c0.898,1.294,2.121,3.498,2.711,5.333c0.293,0.914,0.408,1.74,0.371,2.203c-0.041,0.458-0.051,0.406-0.172,0.478l-2.645,1.518  c-6.65,2.89-12.742,2.24-18.191-0.592c-5.465-2.833-10.215-7.963-13.521-13.98c-0.012-0.011-0.016-0.027-0.027-0.036l-7.24-12.483  c-0.006-0.016-0.016-0.026-0.021-0.043c-3.584-5.856-5.684-12.514-5.424-18.635c0.262-6.112,2.754-11.688,8.6-15.976L33.756,12.44z   M35.877,9.12c-1.145-0.535-2.723-0.692-4.014,0.052l-2.799,1.611c-0.064,0.036-0.121,0.073-0.178,0.109  c-6.74,4.932-9.844,11.797-10.146,18.875c-0.305,7.074,2.059,14.375,5.961,20.757l7.205,12.41c0.004,0,0.01,0,0.01,0.005l0.01,0.032  C35.531,69.504,40.699,75.172,47,78.446c6.311,3.275,13.83,4.034,21.494,0.692c0.068-0.026,0.131-0.057,0.193-0.089l2.801-1.61  c1.291-0.744,1.943-2.172,2.049-3.425c0.109-1.258-0.146-2.468-0.533-3.67c-0.758-2.375-2.07-4.67-3.162-6.257  c-2.068-3.544-4.053-6.012-6.357-7.384c-2.32-1.382-5.105-1.362-7.377-0.057l-3.49,2.001c-1.029,0.592-2.227,0.529-3.486-0.005  c-1.264-0.536-2.428-1.611-2.867-2.36l-8.59-14.806c-0.434-0.748-0.783-2.292-0.621-3.643c0.166-1.357,0.709-2.416,1.738-3.009  l3.48-2.001c2.273-1.304,3.689-3.689,3.646-6.382c-0.047-2.675-1.201-5.633-3.266-9.199c-0.836-1.724-2.172-4-3.85-5.83  C37.951,10.48,37.021,9.655,35.877,9.12z"></path></svg>