<svg height='300px' width='300px'  fill="#FFFFFF" xmlns="http://www.w3.org/2000/svg" xmlns:xlink="http://www.w3.org/1999/xlink" version="1.1" x="0px" y="0px" viewBox="0 0 90 90" enable-background="new 0 0 90 90" xml:space="preserve"><path d="M29.697,48.497h14.666v28.328C35.957,69.583,30.736,59.421,29.697,48.497z M13.705,48.497h12.189  c0.893,10.197,5.131,19.803,12.037,27.338c-8.359-2.137-15.652-7.416-20.09-15.051C15.617,56.938,14.238,52.759,13.705,48.497z   M37.938,13.086c-7.822,8.533-12.242,19.711-12.236,31.4c0,0.078,0.004,0.156,0.01,0.239H13.459  c-0.047-5.723,1.41-11.454,4.389-16.584c4.432-7.634,11.73-12.919,20.094-15.055H37.938z M44.363,12.104v32.621H29.498  c0-0.083-0.004-0.161-0.004-0.239c-0.012-12.437,5.424-24.25,14.863-32.382H44.363z M46.26,8.056c-0.057,0-0.109,0.005-0.162,0.01  c-13.014,0.056-25.025,6.98-31.537,18.194c-6.535,11.262-6.535,25.148,0,36.408c6.516,11.221,18.543,18.148,31.564,18.195  c0.047,0.006,0.088,0.006,0.135,0.006c10.705,0,20.883-4.674,27.832-12.773c0.748-0.785,0.68-2.029-0.146-2.729  c-0.824-0.703-2.068-0.572-2.732,0.285c-4.441,5.17-10.344,8.771-16.84,10.42c2.906-3.098,5.383-6.58,7.348-10.357  c1.07-2.205-2.18-3.873-3.371-1.73c-2.539,4.885-6.002,9.234-10.199,12.82V48.497h4.17c1.051,0,1.902-0.848,1.902-1.887  c0-1.042-0.852-1.89-1.902-1.885h-4.17v-32.74c5.184,4.422,9.232,10.008,11.814,16.297c0.381,0.992,1.504,1.476,2.492,1.075  c0.982-0.404,1.441-1.533,1.018-2.504c-2.115-5.15-5.135-9.864-8.902-13.939c10.09,2.63,18.521,9.926,22.352,19.935  c0.33,1.03,1.463,1.57,2.477,1.186c1.02-0.384,1.5-1.538,1.061-2.525C75.059,17.395,61.443,8.056,46.26,8.056z"></path><path d="M63.246,35.287c0.213,0.011,0.381,0.063,0.533,0.147l15.063,8.787l-5.801,1.201c-1.264,0.265-1.896,1.682-1.248,2.793  l4.158,7.174c0.193,0.338,0.1,0.682-0.234,0.879l-2.77,1.588c-0.34,0.193-0.693,0.102-0.887-0.236l-4.16-7.156  c-0.643-1.119-2.193-1.279-3.057-0.318l-3.924,4.375l-0.109-17.377c-0.006-0.463,0.355-1.044,1.057-1.445  c0.016-0.005,0.02-0.01,0.031-0.021c0.02-0.009,0.041-0.014,0.057-0.03C62.395,35.387,62.891,35.268,63.246,35.287z M63.455,31.516  c-3.1,0-6.369,2.452-6.438,5.654l0.109,17.456c0.012,1.678,0.486,3.211,1.893,4.006c1.4,0.789,3.15,0.16,4.08-0.867l2.826-3.166  l2.854,4.906c1.211,2.096,3.959,2.828,6.061,1.621l2.773-1.596c2.102-1.205,2.838-3.939,1.625-6.027l-2.857-4.916l4.201-0.863  c1.363-0.281,2.779-1.475,2.789-3.081c0.01-1.601-1.082-2.781-2.539-3.628l-15.137-8.834v0.009c-0.684-0.395-1.426-0.67-2.24-0.67  V31.516z"></path></svg>